<svg xmlns="http://www.w3.org/2000/svg" viewBox="0 0 680 170" width="680" height="170"><defs></defs><rect width="680" height="170" fill="#ffffff"/><style>@font-face{font-family:Inter;src:url(../font/Inter-Variable-latin.woff2);font-weight:100 900}.t{font-family:Inter,-apple-system,Segoe UI,sans-serif}</style><path d="M14,10 H106 A14,14 0 0 1 120,24 V40 A14,14 0 0 1 106,54 H4 A4,4 0 0 1 0,50 V24 A14,14 0 0 1 14,10 Z" fill="#0b6f64"/><text class="t" x="0" y="78" font-size="12" fill="#16201e">pulsante sito 14/4</text><path d="M158,10 H262 A8,8 0 0 1 270,18 V34 A8,8 0 0 1 262,42 H152 A2,2 0 0 1 150,40 V18 A8,8 0 0 1 158,10 Z" fill="#0b6f64"/><text class="t" x="150" y="66" font-size="12" fill="#16201e">pulsante gestionale 8/2</text><path d="M320,10 H440 A20,20 0 0 1 460,30 V100 A20,20 0 0 1 440,120 H304 A4,4 0 0 1 300,116 V30 A20,20 0 0 1 320,10 Z" fill="#0b6f64"/><text class="t" x="300" y="144" font-size="12" fill="#16201e">carta sito 20/4</text><path d="M502,10 H638 A12,12 0 0 1 650,22 V108 A12,12 0 0 1 638,120 H492 A2,2 0 0 1 490,118 V22 A12,12 0 0 1 502,10 Z" fill="#0b6f64"/><text class="t" x="490" y="144" font-size="12" fill="#16201e">carta gestionale 12/2</text></svg>
